<svg xmlns="http://www.w3.org/2000/svg" viewBox="0 0 512 512" width="512" height="512" role="img" aria-label="project-nomad-desktop">
    <defs>
        <linearGradient id="bg" x1="52" y1="40" x2="442" y2="478" gradientUnits="userSpaceOnUse">
            <stop offset="0%" stop-color="#111827" />
            <stop offset="54%" stop-color="#0D1320" />
            <stop offset="100%" stop-color="#0A0E17" />
        </linearGradient>
        <linearGradient id="panel" x1="86" y1="82" x2="424" y2="438" gradientUnits="userSpaceOnUse">
            <stop offset="0%" stop-color="#151E2F" />
            <stop offset="56%" stop-color="#0E1626" />
            <stop offset="100%" stop-color="#0A1220" />
        </linearGradient>
        <linearGradient id="primaryGrad" x1="150" y1="126" x2="364" y2="386" gradientUnits="userSpaceOnUse">
            <stop offset="0%" stop-color="#97CEFF" />
            <stop offset="55%" stop-color="#58A6FF" />
            <stop offset="100%" stop-color="#2F74E5" />
        </linearGradient>
        <linearGradient id="secondaryGrad" x1="184" y1="214" x2="334" y2="362" gradientUnits="userSpaceOnUse">
            <stop offset="0%" stop-color="#78F5B0" />
            <stop offset="100%" stop-color="#4ADE80" />
        </linearGradient>
        <filter id="glow" x="-36%" y="-36%" width="172%" height="172%">
            <feGaussianBlur stdDeviation="18" result="blur" />
            <feMerge>
                <feMergeNode in="blur" />
                <feMergeNode in="SourceGraphic" />
            </feMerge>
        </filter>
        <filter id="supportGlow" x="-36%" y="-36%" width="172%" height="172%">
            <feGaussianBlur stdDeviation="12" result="blur" />
            <feMerge>
                <feMergeNode in="blur" />
                <feMergeNode in="SourceGraphic" />
            </feMerge>
        </filter>
        <filter id="softGlow" x="-36%" y="-36%" width="172%" height="172%">
            <feGaussianBlur stdDeviation="6" result="blur" />
            <feMerge>
                <feMergeNode in="blur" />
                <feMergeNode in="SourceGraphic" />
            </feMerge>
        </filter>
        <filter id="softShadow" x="-40%" y="-40%" width="180%" height="180%">
            <feDropShadow dx="0" dy="18" stdDeviation="18" flood-color="#02060C" flood-opacity="0.42" />
        </filter>
        <filter id="halo" x="-60%" y="-60%" width="220%" height="220%">
            <feGaussianBlur stdDeviation="28" />
        </filter>
        <clipPath id="clip">
            <rect x="24" y="24" width="464" height="464" rx="116" />
        </clipPath>
    </defs>
    <g clip-path="url(#clip)">
        <rect x="24" y="24" width="464" height="464" rx="116" fill="url(#bg)" />
        <circle cx="202" cy="180" r="100" fill="#58A6FF" opacity="0.15" filter="url(#halo)" />
        <circle cx="286" cy="292" r="82" fill="#4ADE80" opacity="0.10" filter="url(#halo)" />
        <rect x="56" y="56" width="400" height="400" rx="96" fill="url(#panel)" stroke="#22324B" stroke-width="3" />
        <path d="M104 388 H186" stroke="#203754" stroke-width="7" stroke-linecap="round" opacity="0.30" /><path d="M114 122 H196" stroke="#203754" stroke-width="7" stroke-linecap="round" opacity="0.26" /><path d="M338 398 C366 388 392 370 412 344" stroke="#244C41" stroke-width="7" stroke-linecap="round" opacity="0.30" />
        <path d="M332 112 H404" stroke="#203754" stroke-width="7" stroke-linecap="round" opacity="0.40" />
        <g filter="url(#softShadow)">
        
        <g opacity="0.96">
            <rect x="146" y="132" width="220" height="248" rx="54" fill="#0B1220" stroke="#1B3049" stroke-width="10" opacity="0.44" />
            <rect x="164" y="148" width="220" height="248" rx="56" fill="#0D1524" stroke="#274667" stroke-width="14" opacity="0.88" />
            <rect x="182" y="166" width="148" height="14" rx="7" fill="#142436" />
            <rect x="182" y="332" width="124" height="14" rx="7" fill="#142436" />
            <rect x="188" y="196" width="14" height="18" rx="5" fill="#09111B" />
            <rect x="188" y="230" width="14" height="18" rx="5" fill="#09111B" />
            <rect x="188" y="264" width="14" height="18" rx="5" fill="#09111B" />
            <rect x="188" y="298" width="14" height="18" rx="5" fill="#09111B" />
            <rect x="346" y="196" width="14" height="18" rx="5" fill="#09111B" />
            <rect x="346" y="230" width="14" height="18" rx="5" fill="#09111B" />
            <rect x="346" y="264" width="14" height="18" rx="5" fill="#09111B" />
            <rect x="346" y="298" width="14" height="18" rx="5" fill="#09111B" />
        </g>
        
        </g>
        <g filter="url(#supportGlow)"><g transform="translate(74 -64) rotate(8 256 256) translate(256 256) scale(0.42) translate(-256 -256)" opacity="0.88">
            <path d="M154 166 H358 C380 166 396 182 396 204 V276 C396 298 380 314 358 314 H238 L186 354 V314 H154 C132 314 116 298 116 276 V204 C116 182 132 166 154 166 Z" stroke="url(#primaryGrad)" stroke-width="22" stroke-linecap="round" stroke-linejoin="round" fill="none" />
            <path d="M176 226 H336" stroke="url(#secondaryGrad)" stroke-width="18" stroke-linecap="round" stroke-linejoin="round" fill="none" />
            <path d="M176 266 H286" stroke="url(#secondaryGrad)" stroke-width="18" stroke-linecap="round" stroke-linejoin="round" fill="none" />
        </g></g>
        <g filter="url(#glow)">
        <g transform="translate(256 256) scale(0.82) translate(-256 -256)">
            <path d="M178 142 H334 V372 L256 326 L178 372 Z" stroke="url(#primaryGrad)" stroke-width="22" stroke-linecap="round" stroke-linejoin="round" fill="none" />
            <path d="M214 222 H298" stroke="url(#secondaryGrad)" stroke-width="18" stroke-linecap="round" stroke-linejoin="round" fill="none" />
            <path d="M214 266 H286" stroke="url(#secondaryGrad)" stroke-width="18" stroke-linecap="round" stroke-linejoin="round" fill="none" />
        </g>
        </g>
    </g>
    <rect x="24" y="24" width="464" height="464" rx="116" fill="none" stroke="#26344F" stroke-width="4" />
</svg>
